<svg id="svg" xmlns="http://www.w3.org/2000/svg" xmlns:xlink="http://www.w3.org/1999/xlink" width="400" height="400" viewBox="0, 0, 400,400"><g id="svgg"><path id="path0" d="M80.289 1.762 C 75.527 5.677,75.781 -0.797,75.781 116.364 L 75.781 223.404 81.074 221.495 C 92.449 217.392,111.838 214.318,120.577 215.233 C 122.365 215.420,125.854 215.764,128.331 215.998 L 132.834 216.422 132.353 213.415 C 131.673 209.163,134.204 204.424,138.261 202.354 C 142.253 200.318,285.296 199.840,290.101 201.847 C 296.364 204.464,298.954 211.171,295.953 217.000 C 292.405 223.889,297.451 223.437,224.036 223.438 C 187.401 223.438,159.375 223.735,159.375 224.124 C 159.375 224.502,160.472 225.265,161.812 225.820 C 209.028 245.378,233.095 310.622,211.284 359.940 C 210.234 362.314,209.375 364.396,209.375 364.566 C 209.375 365.866,357.602 364.343,359.766 363.020 C 365.805 359.327,365.210 374.574,365.436 217.773 L 365.638 78.125 329.889 78.122 C 281.098 78.118,285.979 83.000,285.955 34.180 L 285.938 0.000 184.180 0.004 L 82.422 0.008 80.289 1.762 M309.375 30.278 L 309.375 55.469 333.984 55.469 C 347.520 55.469,358.594 55.203,358.594 54.878 C 358.594 54.553,347.520 43.218,333.984 29.688 L 309.375 5.087 309.375 30.278 M236.421 109.081 C 244.724 113.021,244.868 124.917,236.663 129.100 C 232.712 131.115,142.807 131.207,138.579 129.201 C 130.305 125.274,130.229 113.165,138.452 109.112 C 142.353 107.189,232.374 107.161,236.421 109.081 M291.406 155.872 C 299.858 160.742,298.460 173.966,289.223 176.531 C 284.415 177.866,142.816 177.627,139.587 176.278 C 129.320 171.988,130.428 157.086,141.200 154.575 C 147.685 153.063,288.644 154.281,291.406 155.872 M99.794 239.835 C 40.405 252.354,15.552 324.369,54.581 370.840 C 97.620 422.084,181.808 400.652,195.355 335.002 C 207.028 278.432,156.308 227.921,99.794 239.835 M95.066 283.633 C 96.276 284.084,101.572 288.737,106.836 293.973 L 116.406 303.492 125.977 293.973 C 138.954 281.064,144.645 279.486,150.658 287.130 C 155.685 293.521,154.165 297.626,142.351 309.570 L 132.499 319.531 142.330 329.492 C 154.099 341.417,155.654 345.581,150.692 351.889 C 144.535 359.717,139.347 358.280,125.977 345.044 L 116.406 335.570 106.836 345.044 C 93.107 358.635,86.962 359.968,81.246 350.593 C 77.430 344.335,78.772 341.346,90.893 329.102 L 100.367 319.531 90.893 309.961 C 80.443 299.405,79.686 298.326,79.690 293.997 C 79.698 286.268,87.689 280.881,95.066 283.633 " stroke="none" fill="#288cdc" fill-rule="evenodd"></path></g></svg>